<svg height="25" viewBox="0 0 25 25" width="25"
     xmlns="http://www.w3.org/2000/svg">
  <defs>
    <style>.a, .c {
      fill: #F26826;
    }

    .a {
      stroke: #F26826;
    }

    .b {
      clip-path: url(#a);
    }</style>
    <clipPath id="a">
      <rect class="a" height="25" transform="translate(1351 583)" width="25"/>
    </clipPath>
  </defs>
  <g class="b" transform="translate(-1351 -583)">
    <g transform="translate(1351 583)">
      <path class="c"
            d="M24.942,12.188q-.013-.033-.028-.064A13.775,13.775,0,0,0,.1,12.1a.866.866,0,0,0-.013.777,13.775,13.775,0,0,0,24.829,0A.869.869,0,0,0,24.942,12.188ZM12.5,18.947A12.115,12.115,0,0,1,1.837,12.5a12.043,12.043,0,0,1,21.328,0A12.116,12.116,0,0,1,12.5,18.947Z"/>
      <path class="c"
            d="M12.5,8.7a3.8,3.8,0,1,0,3.8,3.8A3.807,3.807,0,0,0,12.5,8.7Zm0,5.872a2.07,2.07,0,1,1,2.07-2.07A2.072,2.072,0,0,1,12.5,14.57Z"/>
    </g>
  </g>
</svg>
