<svg xmlns="http://www.w3.org/2000/svg" width="26" height="26" viewBox="0 0 26 26">
  <g id="Group_1579" data-name="Group 1579" transform="translate(-889 -522)">
    <circle id="Ellipse_52" data-name="Ellipse 52" cx="13" cy="13" r="13" transform="translate(889 522)" fill="#f26826"/>
    <path id="add" d="M12.959,5.844H8.639a.254.254,0,0,1-.254-.254V1.27a1.27,1.27,0,1,0-2.541,0V5.59a.254.254,0,0,1-.254.254H1.27a1.27,1.27,0,1,0,0,2.541H5.59a.254.254,0,0,1,.254.254v4.32a1.27,1.27,0,1,0,2.541,0V8.639a.254.254,0,0,1,.254-.254h4.32a1.27,1.27,0,1,0,0-2.541Zm0,0" transform="translate(894.885 527.771)" fill="#fff"/>
  </g>
</svg>
