<svg height="15.361" viewBox="0 0 15.361 15.361" width="15.361" xmlns="http://www.w3.org/2000/svg">
  <defs>
    <style>.a {
      fill: #fff;
    }</style>
  </defs>
  <g transform="translate(-102.409 -0.004)">
    <g transform="translate(102.409 0.004)">
      <path class="a"
            d="M116.987.787a2.673,2.673,0,0,0-3.781,0l-9.2,9.2a.706.706,0,0,0-.168.273l-1.4,4.189a.7.7,0,0,0,.662.919.709.709,0,0,0,.221-.036l4.189-1.4a.7.7,0,0,0,.273-.169l9.2-9.2A2.673,2.673,0,0,0,116.987.787ZM116,3.58l-9.077,9.077-2.712.906.9-2.709,9.081-9.077A1.276,1.276,0,1,1,116,3.58Z"
            transform="translate(-102.409 -0.004)"/>
    </g>
  </g>
</svg>
