<svg height="16.381" viewBox="0 0 14.6 16.381" width="14.6" xmlns="http://www.w3.org/2000/svg">
  <defs>
    <style>.a {
      fill: none;
      stroke: #a1a1a1;
      stroke-linecap: round;
      stroke-linejoin: round;
      stroke-width: 1.5px;
    }</style>
  </defs>
  <g transform="translate(-23.75 -344.31)">
    <path class="a"
          d="M14.117,16.076V14.422a3.323,3.323,0,0,0-.959-2.338,3.259,3.259,0,0,0-2.316-.969H4.292a3.259,3.259,0,0,0-2.316.969,3.323,3.323,0,0,0-.959,2.338v1.654"
          transform="translate(23.483 343.864)"/>
    <path class="a"
          d="M10.842,4.5a3.33,3.33,0,0,1-.552,1.837A3.282,3.282,0,0,1,8.82,7.557,3.252,3.252,0,0,1,5.251,6.84a3.325,3.325,0,0,1,.5-5.088,3.251,3.251,0,0,1,4.135.411A3.323,3.323,0,0,1,10.842,4.5Z"
          transform="translate(23.483 343.864)"/>
  </g>
</svg>
