<svg height="16.437" viewBox="0 0 24.233 16.437" width="24.233" xmlns="http://www.w3.org/2000/svg">
  <defs>
    <style>.a, .b {
      fill: none;
      stroke: #a1a1a1;
      stroke-linecap: round;
    }

    .a {
      stroke-linejoin: round;
      stroke-width: 1.5px;
    }</style>
  </defs>
  <g transform="translate(-0.267 -0.193)">
    <path class="a"
          d="M14.117,15.88V14.227a3.323,3.323,0,0,0-.959-2.338,3.259,3.259,0,0,0-2.316-.968H4.292a3.259,3.259,0,0,0-2.316.968,3.323,3.323,0,0,0-.959,2.338V15.88"/>
    <path class="a" d="M7.567,7.614A3.307,3.307,0,1,0,4.292,4.307,3.291,3.291,0,0,0,7.567,7.614Z"/>
    <path class="a" d="M19.029,15.88V14.227a3.327,3.327,0,0,0-.687-2.023,3.273,3.273,0,0,0-1.77-1.176"/>
    <path class="a"
          d="M13.3,1.107a3.273,3.273,0,0,1,1.775,1.176,3.332,3.332,0,0,1,0,4.055A3.273,3.273,0,0,1,13.3,7.514"/>
    <path class="b" d="M20,6h4M22,4V8"/>
  </g>
</svg>
