<svg xmlns="http://www.w3.org/2000/svg" width="12" height="16.709" viewBox="0 0 12 16.709">
  <g id="Group_1540" data-name="Group 1540" transform="translate(-432 -471.698)">
    <path id="Path_631" data-name="Path 631" d="M189.167,31.659l-8.942-3.632h0l0,0-.01,0a.358.358,0,0,0-.068-.018l-.028,0c-.011,0-.021,0-.032,0l-.022,0-.03,0a.353.353,0,0,0-.054.012l-.025.008a.359.359,0,0,0-.072.036h0a.368.368,0,0,0-.061.053l-.017.02a.351.351,0,0,0-.032.046l-.013.024a.363.363,0,0,0-.021.055c0,.008-.005.015-.007.023a.363.363,0,0,0-.01.083V41.955a.366.366,0,1,0,.731,0V35.878l8.719-3.541a.366.366,0,0,0,0-.678Z" transform="translate(254.605 446.087)" fill="#ff2e2e"/>
    <path id="Path_629" data-name="Path 629" d="M189.167,31.659l-8.942-3.632h0l0,0-.01,0a.358.358,0,0,0-.068-.018l-.028,0c-.011,0-.021,0-.032,0l-.022,0-.03,0a.353.353,0,0,0-.054.012l-.025.008a.359.359,0,0,0-.072.036h0a.368.368,0,0,0-.061.053l-.017.02a.351.351,0,0,0-.032.046l-.013.024a.363.363,0,0,0-.021.055c0,.008-.005.015-.007.023a.363.363,0,0,0-.01.083V41.955a.366.366,0,1,0,.731,0V35.878l8.719-3.541a.366.366,0,0,0,0-.678Z" transform="translate(252.283 443.7)" fill="#ff2e2e"/>
    <line id="Line_60" data-name="Line 60" y1="3.978" x2="9.548" transform="translate(433.989 475.28)" fill="none" stroke="#1a1a1a" stroke-width="0.5"/>
  </g>
</svg>
