<svg height="8" viewBox="0 0 8 8" width="8" xmlns="http://www.w3.org/2000/svg">
  <defs>
    <style>.a {
      fill: #b8cbd9;
    }

    .b {
      fill: #976947;
    }

    .c {
      fill: #c18e59;
    }

    .d {
      fill: #e4725f;
    }

    .e {
      fill: #e8eff4;
    }

    .f {
      fill: #af4a47;
    }</style>
  </defs>
  <g transform="translate(-0.5)">
    <path class="a" d="M3.548,4.855l2.6-2.6L7.387.114,5.355,1.243l-2.71,2.71" transform="translate(1)"/>
    <path class="b" d="M5.806,6.436,6.935,5.307l.452.452L6.258,6.888Z" transform="translate(1 1)"/>
    <path class="c" d="M5.016,5.193,6.032,6.21l.677-.677L5.693,4.516" transform="translate(1 1)"/>
    <path class="d" d="M4.339,5.871,6.371,3.839h-.9L4.339,4.968Z" transform="translate(0.773 0.773)"/>
    <path class="e" d="M4.452,4.855l-2.6-2.6L.613.114,2.645,1.243l2.71,2.71"/>
    <path class="b" d="M.613,5.758l.452-.452L2.193,6.435l-.452.452Z" transform="translate(0 1)"/>
    <path class="c" d="M2.984,5.193,1.968,6.21,1.29,5.532,2.306,4.516" transform="translate(0 1)"/>
    <path class="f" d="M3.661,5.871,1.629,3.839h.9L3.661,4.968Z" transform="translate(0.227 0.773)"/>
    <path
      d="M4.339,5.984a.113.113,0,0,1-.113-.113v-.9a.113.113,0,0,1,.033-.08L5.388,3.76a.113.113,0,0,1,.08-.033h.9a.113.113,0,0,1,.08.193L4.418,5.951A.113.113,0,0,1,4.339,5.984Zm.113-.969V5.6L6.1,3.952H5.514Z"
      transform="translate(1 1)"/>
    <path
      d="M6.258,7a.113.113,0,0,1-.08-.033l-.452-.452a.113.113,0,0,1,0-.16L6.856,5.227a.113.113,0,0,1,.16,0l.452.452a.113.113,0,0,1,0,.16L6.338,6.967A.113.113,0,0,1,6.258,7Zm-.292-.565.292.292.969-.969-.292-.292Z"
      transform="translate(1 1)"/>
    <path d="M5.613,4.6l.16-.16L6.789,5.453l-.16.16Z" transform="translate(1 0.762)"/>
    <path d="M4.936,5.274l.16-.16L6.112,6.13l-.16.16Z" transform="translate(0.762 1)"/>
    <path d="M5.613,5.791l.677-.677.16.16-.677.677Z" transform="translate(1 1)"/>
    <path d="M5.275,5.452l.677-.677.16.16-.677.677Z" transform="translate(0.775 0.775)"/>
    <path
      d="M4.372,4.935l-2.6-2.6a.11.11,0,0,1-.018-.023L.516.17A.113.113,0,0,1,.668.015L2.7,1.144a.109.109,0,0,1,.025.019l2.71,2.71-.16.16-2.7-2.7L.916.411,1.945,2.19,4.532,4.776Z"/>
    <path
      d="M3.661,5.984a.113.113,0,0,1-.08-.033L1.549,3.919a.113.113,0,0,1,.08-.193h.9a.113.113,0,0,1,.08.033L3.741,4.889a.113.113,0,0,1,.033.08v.9a.113.113,0,0,1-.113.113ZM1.9,3.952,3.548,5.6V5.015L2.485,3.952Z"
      transform="translate(0 1)"/>
    <path
      d="M1.742,7a.113.113,0,0,1-.08-.033L.533,5.838a.113.113,0,0,1,0-.16l.452-.452a.113.113,0,0,1,.16,0L2.273,6.356a.113.113,0,0,1,0,.16l-.452.452A.113.113,0,0,1,1.742,7ZM.773,5.758l.969.969.292-.292-.969-.969Z"
      transform="translate(0 1)"/>
    <path d="M1.21,5.453,2.227,4.437l.16.16L1.37,5.612Z" transform="translate(0 0.762)"/>
    <path d="M1.888,6.13,2.9,5.114l.16.16L2.048,6.29Z" transform="translate(0.238 1)"/>
    <path d="M1.549,5.274l.16-.16.677.677-.16.16Z" transform="translate(0 1)"/>
    <path d="M1.888,4.935l.16-.16.677.677-.16.16Z" transform="translate(0.225 0.775)"/>
    <path d="M2.565,3.872l.452-.452.16.16-.452.452Z" transform="translate(0.323 0.535)"/>
    <path
      d="M4.983,3.58l-.16-.16L6.055,2.189,7.084.41l-1.661.923L4.08,2.677l-.16-.16L5.275,1.162A.109.109,0,0,1,5.3,1.143L7.332.014a.113.113,0,0,1,.153.155L6.243,2.315a.111.111,0,0,1-.018.023Z"
      transform="translate(1)"/>
    <path d="M3.469,4.775l.452-.452.16.16-.452.452Z" transform="translate(0.465 0.677)"/>
    <path d="M2.227,1.944l.218-.218L5.983,5.266l-.218.218Z" transform="translate(0 0)"/>
    <path d="M3.017,4.323l.452-.452.16.16-.452.452Z" transform="translate(0.394 0.606)"/>
    <path d="M4.372,2.969,5.614,1.727l.16.16L4.531,3.128Z" transform="translate(0.692 0.308)"/>
  </g>
</svg>
