<svg xmlns="http://www.w3.org/2000/svg" width="39.091" height="31.207" viewBox="0 0 39.091 31.207">
  <g id="noun-game-2007259" transform="translate(0.076 0.15)">
    <path id="Path_623" data-name="Path 623" d="M121.992,85.484c-.984-4.837-3.075-11.315-9.429-11.479a20.233,20.233,0,0,0-4.51.451,21.156,21.156,0,0,1-3.608.41v-5a.984.984,0,0,0-1.968,0v5a26.234,26.234,0,0,1-3.608-.41,22.687,22.687,0,0,0-4.51-.451c-6.354.123-8.445,6.6-9.429,11.479-1.106,5.37-1.476,9.47.205,11.971a5.38,5.38,0,0,0,3.649,2.214c4.182.738,8.158-2.542,10.946-8.937h7.461c2.5,5.821,5.986,9.019,9.757,9.019a10.753,10.753,0,0,0,1.148-.082,5.205,5.205,0,0,0,3.649-2.214c1.722-2.5,1.353-6.6.246-11.971Zm-1.845,10.9a3.415,3.415,0,0,1-2.378,1.394c-4.591.779-7.666-5.165-8.773-7.748a1.962,1.962,0,0,0-1.8-1.189H99.732a1.962,1.962,0,0,0-1.8,1.189c-1.107,2.583-4.182,8.568-8.773,7.748a3.415,3.415,0,0,1-2.378-1.394c-1.394-2.05-.779-6.272.082-10.495,1.394-6.764,3.731-9.8,7.543-9.88h.287a18.233,18.233,0,0,1,3.772.41,25.252,25.252,0,0,0,9.921,0,21.573,21.573,0,0,1,4.059-.41c3.854.082,6.19,3.157,7.543,9.88.943,4.223,1.558,8.445.164,10.495Z" transform="translate(-83.988 -68.881)" fill="#4ed45c" stroke="#4ed45c" stroke-width="0.3"/>
    <path id="Path_624" data-name="Path 624" d="M191.693,224.782h-1.968v-1.968a.5.5,0,0,0-.492-.492h-1.476a.5.5,0,0,0-.492.492v1.968H185.3a.5.5,0,0,0-.492.492v1.476a.5.5,0,0,0,.492.492h1.968v1.968a.5.5,0,0,0,.492.492h1.476a.5.5,0,0,0,.492-.492v-1.968h1.968a.5.5,0,0,0,.492-.492v-1.476A.5.5,0,0,0,191.693,224.782Z" transform="translate(-177.425 -211.089)" fill="#ff2e2e" stroke="#ff2e2e" stroke-width="0.3"/>
    <path id="Path_625" data-name="Path 625" d="M445.39,218.4a1.312,1.312,0,1,0,1.312,1.312A1.321,1.321,0,0,0,445.39,218.4Z" transform="translate(-417.717 -207.454)" fill="#ff2e2e" stroke="#ff2e2e" stroke-width="0.3"/>
    <path id="Path_626" data-name="Path 626" d="M481.23,254.8a1.312,1.312,0,1,0,1.312,1.312A1.3,1.3,0,0,0,481.23,254.8Z" transform="translate(-450.933 -241.19)" fill="#ff2e2e" stroke="#ff2e2e" stroke-width="0.3"/>
    <path id="Path_627" data-name="Path 627" d="M408.99,254.8a1.312,1.312,0,1,0,1.312,1.312A1.321,1.321,0,0,0,408.99,254.8Z" transform="translate(-383.982 -241.19)" fill="#ff2e2e" stroke="#ff2e2e" stroke-width="0.3"/>
    <path id="Path_628" data-name="Path 628" d="M444.83,291.2a1.312,1.312,0,1,0,1.312,1.312A1.3,1.3,0,0,0,444.83,291.2Z" transform="translate(-417.198 -274.925)" fill="#ff2e2e" stroke="#ff2e2e" stroke-width="0.3"/>
  </g>
</svg>
