<svg xmlns="http://www.w3.org/2000/svg" xmlns:xlink="http://www.w3.org/1999/xlink" width="24" height="24" viewBox="0 0 24 24">
  <defs>
    <clipPath id="clip-path">
      <rect id="Rectangle_481" data-name="Rectangle 481" width="24" height="24" transform="translate(907 301)" fill="#fff" stroke="#707070" stroke-width="1"/>
    </clipPath>
  </defs>
  <g id="Mask_Group_10" data-name="Mask Group 10" transform="translate(-907 -301)" clip-path="url(#clip-path)">
    <g id="XMLID_559_" transform="translate(907 301)">
      <path id="XMLID_602_" d="M19.479,11.461a7.136,7.136,0,0,0-2.324-1.979A5.226,5.226,0,0,0,10.722,1.43,5.225,5.225,0,0,0,4.3,9.491,8.85,8.85,0,0,0,0,17.353v5.871H18.029a5.971,5.971,0,0,0,1.449-11.763Zm-4.553.694a7.689,7.689,0,0,0-.743-1.006,5.194,5.194,0,0,0,1.788-.68,6.232,6.232,0,0,1,1.417.848A5.929,5.929,0,0,0,14.925,12.155ZM17.077,6a3.824,3.824,0,0,1-4.513,3.759q-.231-.147-.474-.279A5.218,5.218,0,0,0,11.977,2.4a3.824,3.824,0,0,1,5.1,3.6ZM8.192,2.182A3.822,3.822,0,1,1,4.371,6,3.826,3.826,0,0,1,8.192,2.182ZM1.406,21.818V17.353a7.355,7.355,0,0,1,4.073-6.882,5.219,5.219,0,0,0,5.429,0,6.106,6.106,0,0,1,2.9,2.561,5.962,5.962,0,0,0,.373,8.787H1.406Zm16.623,0a4.564,4.564,0,1,1,4.564-4.564A4.57,4.57,0,0,1,18.029,21.818Z" fill="#fff"/>
      <path id="XMLID_612_" d="M18.732,14.556H17.326V16.55H15.331v1.406h1.995v1.995h1.406V17.957h1.995V16.55H18.732Z" fill="#fff"/>
    </g>
  </g>
</svg>
