<svg height="25" viewBox="0 0 25 25" width="25"
     xmlns="http://www.w3.org/2000/svg">
  <defs>
    <style>.a, .c {
      fill: #77f226;
    }

    .a {
      stroke: #707070;
    }

    .b {
      clip-path: url(#a);
    }</style>
    <clipPath id="a">
      <rect class="a" height="25" transform="translate(1226 181)" width="25"/>
    </clipPath>
  </defs>
  <g class="b" transform="translate(-1226 -181)">
    <g transform="translate(1226 181)">
      <path class="c"
            d="M3.676,21.324A12.446,12.446,0,1,0,1,17.358,12.435,12.435,0,0,0,3.676,21.324ZM12.5,1.843A10.657,10.657,0,1,1,1.843,12.5,10.657,10.657,0,0,1,12.5,1.843Z"/>
      <path class="c"
            d="M12.5,25A12.5,12.5,0,0,1,7.634.983a12.5,12.5,0,0,1,9.732,23.034A12.424,12.424,0,0,1,12.5,25ZM12.5.043A12.46,12.46,0,0,0,7.65,23.978a12.46,12.46,0,0,0,9.7-22.955A12.38,12.38,0,0,0,12.5.043Zm0,23.136A10.678,10.678,0,0,1,4.949,4.949a10.678,10.678,0,1,1,15.1,15.1A10.608,10.608,0,0,1,12.5,23.178Zm0-21.314A10.636,10.636,0,0,0,4.979,20.021,10.636,10.636,0,1,0,20.021,4.979,10.566,10.566,0,0,0,12.5,1.864Z"/>
      <path class="c"
            d="M9.738,17.043a.911.911,0,0,0,1.288,0l7.8-7.8a.911.911,0,1,0-1.288-1.288l-7.154,7.154L7.464,12.194a.911.911,0,1,0-1.288,1.288Z"/>
      <path class="c"
            d="M10.382,17.331a.926.926,0,0,1-.659-.273L6.161,13.5a.932.932,0,1,1,1.318-1.318l2.9,2.9,7.139-7.139A.932.932,0,1,1,18.839,9.26l-7.8,7.8A.926.926,0,0,1,10.382,17.331ZM6.82,11.948a.89.89,0,0,0-.629,1.519l3.561,3.561a.89.89,0,0,0,1.258,0l7.8-7.8a.89.89,0,0,0-1.258-1.258l-7.169,7.169L7.449,12.209A.884.884,0,0,0,6.82,11.948Z"/>
    </g>
  </g>
</svg>
