<svg height="13" viewBox="0 0 13 13" width="13"
     xmlns="http://www.w3.org/2000/svg">
  <defs>
    <style>.a, .f {
      fill: #fff;
    }

    .a {
      stroke: #707070;
    }

    .b {
      clip-path: url(#a);
    }

    .c {
      fill: #fabe2c;
    }

    .d {
      fill: #ff9100;
    }

    .e {
      fill: #c0c5c8;
    }

    .g {
      fill: #ff641a;
    }</style>
    <clipPath id="a">
      <rect class="a" height="13" transform="translate(1083 520)" width="13"/>
    </clipPath>
  </defs>
  <g class="b" transform="translate(-1083 -520)">
    <g transform="translate(1083 520)">
      <path class="c" d="M3.834.762H4.977v.762H3.834Z"/>
      <path class="d" d="M8.023.762H9.166v.762H8.023Z"/>
      <path class="c"
            d="M6.5,0H4.6V2.691a1.942,1.942,0,0,0,1,1.7,1.081,1.081,0,0,1,.521.958V6.525h.762V5.352a1.08,1.08,0,0,1,.52-.958,1.942,1.942,0,0,0,1-1.7V0Z"/>
      <path class="d" d="M6.881,5.352a1.08,1.08,0,0,1,.52-.958,1.942,1.942,0,0,0,1-1.7V0H6.5V6.525h.381Z"/>
      <path class="e" d="M6.5,7.668H2.285v1.9h.762V8.43H9.953V9.572h.762v-1.9Z"/>
      <path class="f" d="M9.953,9.572h.762v-1.9H6.5V8.43H9.953Z"/>
      <path class="c" d="M6.5,6.145H5.357v.762H7.643V6.145Z"/>
      <path class="d" d="M6.5,6.145H7.643v.762H6.5Z"/>
      <path class="e" d="M4.57,11.1H3.809V9.953H1.523V11.1H.762v-1.9H4.57Z"/>
      <path class="f" d="M12.238,11.1h-.762V9.953H9.191V11.1H8.43v-1.9h3.809Z"/>
      <path class="g" d="M8.811,13a1.143,1.143,0,1,1,1.143-1.143A1.144,1.144,0,0,1,8.811,13Z"/>
      <path class="g" d="M11.857,13A1.143,1.143,0,1,1,13,11.857,1.144,1.144,0,0,1,11.857,13Z"/>
      <path class="c" d="M1.143,13a1.143,1.143,0,1,1,1.143-1.143A1.144,1.144,0,0,1,1.143,13Z"/>
      <path class="c" d="M4.189,13a1.143,1.143,0,1,1,1.143-1.143A1.144,1.144,0,0,1,4.189,13Z"/>
    </g>
  </g>
</svg>
