<svg height="25" viewBox="0 0 25 25" width="25"
     xmlns="http://www.w3.org/2000/svg">
  <defs>
    <style>.a, .c {
      fill: red;
    }

    .a {
      stroke: #707070;
    }

    .b {
      clip-path: url(#a);
    }</style>
    <clipPath id="a">
      <rect class="a" height="25" transform="translate(1259 181)" width="25"/>
    </clipPath>
  </defs>
  <g class="b" transform="translate(-1259 -181)">
    <g transform="translate(1259 181)">
      <path class="c"
            d="M12.5,25A12.5,12.5,0,1,1,25,12.5,12.514,12.514,0,0,1,12.5,25Zm0-23.214A10.714,10.714,0,1,0,23.214,12.5,10.727,10.727,0,0,0,12.5,1.786Zm0,0"/>
      <path class="c"
            d="M16.964,17.857a.889.889,0,0,1-.631-.262L7.4,8.667A.893.893,0,0,1,8.667,7.4L17.6,16.333a.893.893,0,0,1-.631,1.524Zm0,0"/>
      <path class="c"
            d="M8.036,17.857A.893.893,0,0,1,7.4,16.333L16.333,7.4A.893.893,0,0,1,17.6,8.667L8.667,17.6A.889.889,0,0,1,8.036,17.857Zm0,0"/>
    </g>
  </g>
</svg>
