<svg height="16" viewBox="0 0 16 16" width="16"
     xmlns="http://www.w3.org/2000/svg">
  <defs>
    <style>.a, .c {
      fill: #fff;
    }

    .a {
      stroke: #707070;
    }

    .b {
      opacity: 0.8;
      clip-path: url(#a);
    }</style>
    <clipPath id="a">
      <rect class="a" height="16" transform="translate(1043.5 201)" width="16"/>
    </clipPath>
  </defs>
  <g class="b" transform="translate(-1043.5 -201)">
    <g transform="translate(1043.5 201)">
      <path class="c"
            d="M13.657,10.343a7.969,7.969,0,0,0-3.04-1.907,4.625,4.625,0,1,0-5.234,0A8.013,8.013,0,0,0,0,16H1.25a6.75,6.75,0,0,1,13.5,0H16A7.948,7.948,0,0,0,13.657,10.343ZM8,8a3.375,3.375,0,1,1,3.375-3.375A3.379,3.379,0,0,1,8,8Z"/>
    </g>
  </g>
</svg>
