<svg height="8" viewBox="0 0 8 8" width="8"
     xmlns="http://www.w3.org/2000/svg">
  <defs>
    <style>.a {
      fill: #fff;
      stroke: #707070;
    }

    .b {
      clip-path: url(#a);
    }

    .c {
      fill: #646d73;
    }

    .d {
      fill: #474f54;
    }

    .e {
      fill: #fed843;
    }

    .f {
      fill: #fabe2c;
    }

    .g {
      fill: #ff9100;
    }

    .h {
      fill: #32393f;
    }</style>
    <clipPath id="a">
      <rect class="a" height="8" transform="translate(319 220)" width="8"/>
    </clipPath>
  </defs>
  <g class="b" transform="translate(-319 -220)">
    <g transform="translate(319 220)">
      <path class="c"
            d="M5.622,6.708,4,6.239l-1.622.469a.19.19,0,0,0-.019.089v.969H5.641V6.8A.19.19,0,0,0,5.622,6.708Z"/>
      <path class="d" d="M5.641,7.766V6.8a.19.19,0,0,0-.019-.089L4,6.239V7.766Z"/>
      <path class="e"
            d="M7.766.469h-1.2c0-.079.01-.154.01-.234A.232.232,0,0,0,6.344,0H1.656a.232.232,0,0,0-.234.234c0,.081.008.155.01.234H.234A.234.234,0,0,0,0,.7V1.3a2.463,2.463,0,0,0,2.34,2.44,2.323,2.323,0,0,0,.952.8,3.5,3.5,0,0,1-.862,2.1.166.166,0,0,0-.052.075H5.622a.166.166,0,0,0-.052-.075,3.457,3.457,0,0,1-.863-2.1,2.33,2.33,0,0,0,.954-.8A2.463,2.463,0,0,0,8,1.3V.7A.234.234,0,0,0,7.766.469ZM.469,1.3V.938h.983A6.224,6.224,0,0,0,2.034,3.23,2,2,0,0,1,.469,1.3Zm7.063,0A2,2,0,0,1,5.967,3.229,6.249,6.249,0,0,0,6.548.938h.983Z"/>
      <path class="f"
            d="M7.766.469h-1.2c0-.079.01-.154.01-.234A.232.232,0,0,0,6.344,0H4V6.708H5.622a.166.166,0,0,0-.052-.075,3.457,3.457,0,0,1-.863-2.1,2.33,2.33,0,0,0,.954-.8A2.463,2.463,0,0,0,8,1.3V.7A.234.234,0,0,0,7.766.469ZM7.531,1.3A2,2,0,0,1,5.967,3.229,6.248,6.248,0,0,0,6.548.938h.983Z"/>
      <path class="f"
            d="M4.374,2.981,4,2.787l-.374.194a.234.234,0,0,1-.339-.246l.069-.416-.3-.3a.234.234,0,0,1,.13-.4L3.6,1.561l.189-.377a.244.244,0,0,1,.419,0l.189.377.417.063a.234.234,0,0,1,.13.4l-.3.3.069.416a.234.234,0,0,1-.339.246Z"/>
      <path class="g"
            d="M4.374,2.981a.234.234,0,0,0,.339-.246l-.069-.416.3-.3a.234.234,0,0,0-.13-.4L4.4,1.561,4.21,1.184A.229.229,0,0,0,4,1.065V2.787Z"/>
      <path class="d" d="M5.875,8H2.125a.234.234,0,0,1,0-.469h3.75a.234.234,0,0,1,0,.469Z"/>
      <path class="h" d="M5.875,7.531H4V8H5.875a.234.234,0,0,0,0-.469Z"/>
    </g>
  </g>
</svg>
