<svg height="16" viewBox="0 0 16 16" width="16"
     xmlns="http://www.w3.org/2000/svg">
  <defs>
    <style>.a, .c {
      fill: #fff;
    }

    .a {
      stroke: #707070;
    }

    .b {
      opacity: 0.8;
      clip-path: url(#a);
    }</style>
    <clipPath id="a">
      <rect class="a" height="16" transform="translate(1044 335)" width="16"/>
    </clipPath>
  </defs>
  <g class="b" transform="translate(-1044 -335)">
    <g transform="translate(1044 335)">
      <circle class="c" cx="0.625" cy="0.625" r="0.625" transform="translate(10.938 10.188)"/>
      <path class="c"
            d="M14.375,11.313A.625.625,0,0,0,15,10.688V8.375a2.5,2.5,0,0,0-2.5-2.5h-.751v-2.2a3.751,3.751,0,0,0-7.5,0v2.2H3.5A2.5,2.5,0,0,0,1,8.375V13.5A2.5,2.5,0,0,0,3.5,16h9A2.5,2.5,0,0,0,15,13.5a.625.625,0,0,0-1.25,0,1.251,1.251,0,0,1-1.25,1.25h-9A1.251,1.251,0,0,1,2.25,13.5V8.375A1.251,1.251,0,0,1,3.5,7.125h9a1.251,1.251,0,0,1,1.25,1.25v2.313A.625.625,0,0,0,14.375,11.313ZM10.5,5.875h-5v-2.2a2.5,2.5,0,0,1,5,0Z"/>
      <circle class="c" cx="0.625" cy="0.625" r="0.625" transform="translate(6.219 10.188)"/>
      <circle class="c" cx="0.625" cy="0.625" r="0.625" transform="translate(3.875 10.188)"/>
      <circle class="c" cx="0.625" cy="0.625" r="0.625" transform="translate(8.563 10.188)"/>
    </g>
  </g>
</svg>
