<svg xmlns="http://www.w3.org/2000/svg" width="14.112" height="11.306" viewBox="0 0 14.112 11.306">
  <g id="noun-game-2007259" transform="translate(-83.866 -68.731)">
    <path id="Path_623" data-name="Path 623" d="M97.522,74.793c-.35-1.723-1.095-4.029-3.358-4.088a7.206,7.206,0,0,0-1.606.161,7.535,7.535,0,0,1-1.285.146V69.231a.35.35,0,0,0-.7,0v1.781a9.342,9.342,0,0,1-1.285-.146,8.079,8.079,0,0,0-1.606-.161c-2.263.044-3.007,2.35-3.358,4.088-.394,1.912-.525,3.372.073,4.263a1.916,1.916,0,0,0,1.3.788c1.489.263,2.905-.905,3.9-3.183h2.657c.891,2.073,2.131,3.212,3.475,3.212a3.83,3.83,0,0,0,.409-.029,1.854,1.854,0,0,0,1.3-.788c.613-.891.482-2.35.088-4.263Zm-.657,3.883a1.216,1.216,0,0,1-.847.5c-1.635.277-2.73-1.839-3.124-2.759a.7.7,0,0,0-.642-.423H89.595a.7.7,0,0,0-.642.423c-.394.92-1.489,3.051-3.124,2.759a1.216,1.216,0,0,1-.847-.5c-.5-.73-.277-2.234.029-3.737.5-2.409,1.329-3.489,2.686-3.518h.1a6.493,6.493,0,0,1,1.343.146,8.993,8.993,0,0,0,3.533,0,7.682,7.682,0,0,1,1.445-.146c1.372.029,2.2,1.124,2.686,3.518.336,1.5.555,3.007.058,3.737Z" transform="translate(0 0)" fill="#4ed45c" stroke="#4ed45c" stroke-width="0.3"/>
    <path id="Path_624" data-name="Path 624" d="M187.258,223.2h-.7v-.7a.178.178,0,0,0-.175-.175h-.526a.178.178,0,0,0-.175.175v.7h-.7a.178.178,0,0,0-.175.175v.526a.177.177,0,0,0,.175.175h.7v.7a.178.178,0,0,0,.175.175h.526a.178.178,0,0,0,.175-.175v-.7h.7a.178.178,0,0,0,.175-.175v-.526A.177.177,0,0,0,187.258,223.2Z" transform="translate(-98.189 -149.441)" fill="#ff2e2e" stroke="#ff2e2e" stroke-width="0.3"/>
    <path id="Path_625" data-name="Path 625" d="M444.545,218.4a.467.467,0,1,0,.467.467A.471.471,0,0,0,444.545,218.4Z" transform="translate(-350.702 -145.621)" fill="#ff2e2e" stroke="#ff2e2e" stroke-width="0.3"/>
    <path id="Path_626" data-name="Path 626" d="M480.385,254.8a.467.467,0,1,0,.467.467A.461.461,0,0,0,480.385,254.8Z" transform="translate(-385.608 -181.072)" fill="#ff2e2e" stroke="#ff2e2e" stroke-width="0.3"/>
    <path id="Path_627" data-name="Path 627" d="M408.145,254.8a.467.467,0,1,0,.467.467A.47.47,0,0,0,408.145,254.8Z" transform="translate(-315.251 -181.072)" fill="#ff2e2e" stroke="#ff2e2e" stroke-width="0.3"/>
    <path id="Path_628" data-name="Path 628" d="M443.985,291.2a.467.467,0,1,0,.467.467A.461.461,0,0,0,443.985,291.2Z" transform="translate(-350.157 -216.524)" fill="#ff2e2e" stroke="#ff2e2e" stroke-width="0.3"/>
  </g>
</svg>
