<svg xmlns="http://www.w3.org/2000/svg" xmlns:xlink="http://www.w3.org/1999/xlink" width="24" height="24" viewBox="0 0 24 24">
  <defs>
    <clipPath id="clip-path">
      <rect id="Rectangle_482" data-name="Rectangle 482" width="24" height="24" transform="translate(1133 301)" fill="#fff" stroke="#707070" stroke-width="1"/>
    </clipPath>
  </defs>
  <g id="Mask_Group_11" data-name="Mask Group 11" transform="translate(-1133 -301)" clip-path="url(#clip-path)">
    <path id="messenger" d="M12,0A12,12,0,0,0,1.591,17.974l-1.546,4.8a.937.937,0,0,0,1.18,1.18l4.8-1.546A12,12,0,1,0,12,0Zm0,22.125a10.1,10.1,0,0,1-5.359-1.534.938.938,0,0,0-.784-.1L2.39,21.61l1.116-3.466a.938.938,0,0,0-.1-.784A10.126,10.126,0,1,1,12,22.125ZM13.172,12A1.172,1.172,0,1,1,12,10.828,1.172,1.172,0,0,1,13.172,12Zm4.687,0a1.172,1.172,0,1,1-1.172-1.172A1.172,1.172,0,0,1,17.859,12ZM8.484,12a1.172,1.172,0,1,1-1.172-1.172A1.172,1.172,0,0,1,8.484,12Zm0,0" transform="translate(1133 301)" fill="#fff"/>
  </g>
</svg>
