<svg xmlns="http://www.w3.org/2000/svg" width="20.221" height="16.173" viewBox="0 0 20.221 16.173">
  <g id="noun-game-2007259" transform="translate(-83.877 -68.731)">
    <path id="Path_623" data-name="Path 623" d="M103.506,77.408c-.505-2.484-1.579-5.811-4.843-5.9a10.392,10.392,0,0,0-2.316.232,10.865,10.865,0,0,1-1.853.211V69.386a.505.505,0,0,0-1.011,0v2.569a13.471,13.471,0,0,1-1.853-.211,11.652,11.652,0,0,0-2.316-.232c-3.264.063-4.337,3.39-4.843,5.9-.568,2.758-.758,4.864.105,6.148a2.763,2.763,0,0,0,1.874,1.137c2.148.379,4.19-1.305,5.622-4.59h3.832c1.284,2.99,3.074,4.632,5.011,4.632a5.526,5.526,0,0,0,.59-.042,2.673,2.673,0,0,0,1.874-1.137c.884-1.284.695-3.39.126-6.148Zm-.947,5.6a1.754,1.754,0,0,1-1.221.716c-2.358.4-3.937-2.653-4.506-3.979a1.008,1.008,0,0,0-.926-.611H92.074a1.008,1.008,0,0,0-.926.611c-.569,1.326-2.148,4.4-4.506,3.979a1.754,1.754,0,0,1-1.221-.716c-.716-1.053-.4-3.221.042-5.39.716-3.474,1.916-5.032,3.874-5.074h.147a9.364,9.364,0,0,1,1.937.211,12.969,12.969,0,0,0,5.1,0,11.079,11.079,0,0,1,2.084-.211c1.979.042,3.179,1.621,3.874,5.074.484,2.169.8,4.337.084,5.39Z" transform="translate(0 0)" fill="#4ed45c" stroke="#4ed45c" stroke-width="0.3"/>
    <path id="Path_624" data-name="Path 624" d="M188.343,223.585h-1.011v-1.011a.256.256,0,0,0-.253-.253h-.758a.256.256,0,0,0-.253.253v1.011h-1.011a.256.256,0,0,0-.253.253v.758a.256.256,0,0,0,.253.253h1.011v1.011a.256.256,0,0,0,.253.253h.758a.256.256,0,0,0,.253-.253v-1.011h1.011a.256.256,0,0,0,.253-.253v-.758A.256.256,0,0,0,188.343,223.585Z" transform="translate(-97.027 -147.672)" fill="#ff2e2e" stroke="#ff2e2e" stroke-width="0.3"/>
    <path id="Path_625" data-name="Path 625" d="M444.752,218.4a.674.674,0,1,0,.674.674A.679.679,0,0,0,444.752,218.4Z" transform="translate(-346.551 -143.898)" fill="#ff2e2e" stroke="#ff2e2e" stroke-width="0.3"/>
    <path id="Path_626" data-name="Path 626" d="M480.592,254.8a.674.674,0,1,0,.674.674A.665.665,0,0,0,480.592,254.8Z" transform="translate(-381.044 -178.929)" fill="#ff2e2e" stroke="#ff2e2e" stroke-width="0.3"/>
    <path id="Path_627" data-name="Path 627" d="M408.352,254.8a.674.674,0,1,0,.674.674A.679.679,0,0,0,408.352,254.8Z" transform="translate(-311.52 -178.929)" fill="#ff2e2e" stroke="#ff2e2e" stroke-width="0.3"/>
    <path id="Path_628" data-name="Path 628" d="M444.192,291.2a.674.674,0,1,0,.674.674A.665.665,0,0,0,444.192,291.2Z" transform="translate(-346.012 -213.961)" fill="#ff2e2e" stroke="#ff2e2e" stroke-width="0.3"/>
  </g>
</svg>
