<svg xmlns="http://www.w3.org/2000/svg" xmlns:xlink="http://www.w3.org/1999/xlink" width="16" height="16" viewBox="0 0 16 16">
  <defs>
    <clipPath id="clip-path">
      <rect id="Rectangle_763" data-name="Rectangle 763" width="16" height="16" transform="translate(319.5 220.5)" fill="#fff" stroke="#707070" stroke-width="1"/>
    </clipPath>
  </defs>
  <g id="Mask_Group_270" data-name="Mask Group 270" transform="translate(-319.5 -220.5)" clip-path="url(#clip-path)">
    <g id="trophy" transform="translate(319.242 220.242)">
      <g id="Group_1426" data-name="Group 1426" transform="translate(4.719 12.478)">
        <path id="Path_497" data-name="Path 497" d="M8.884,7.177,5.641,6.239,2.4,7.177a.381.381,0,0,0-.037.178V9.292H8.922V7.355A.381.381,0,0,0,8.884,7.177Z" transform="translate(-2.359 -6.239)" fill="#646d73"/>
      </g>
      <path id="Path_498" data-name="Path 498" d="M7.281,9.292V7.355a.381.381,0,0,0-.037-.178L4,6.239V9.292Z" transform="translate(4 6.239)" fill="#474f54"/>
      <path id="Path_499" data-name="Path 499" d="M15.531.938h-2.4c0-.158.02-.308.02-.469A.464.464,0,0,0,12.688,0H3.313a.464.464,0,0,0-.469.469c0,.161.016.31.02.469H.469A.468.468,0,0,0,0,1.406V2.594a4.927,4.927,0,0,0,4.68,4.88,4.647,4.647,0,0,0,1.9,1.6,7,7,0,0,1-1.725,4.191.333.333,0,0,0-.1.15h6.488a.333.333,0,0,0-.1-.15A6.914,6.914,0,0,1,9.416,9.075a4.659,4.659,0,0,0,1.908-1.6A4.927,4.927,0,0,0,16,2.594V1.406a.468.468,0,0,0-.469-.469ZM.938,2.594V1.875H2.9A12.448,12.448,0,0,0,4.068,6.46,4,4,0,0,1,.938,2.594Zm14.125,0a4,4,0,0,1-3.128,3.865A12.5,12.5,0,0,0,13.1,1.875h1.967Z" fill="#fed843"/>
      <path id="Path_500" data-name="Path 500" d="M11.531.938h-2.4c0-.158.02-.308.02-.469A.464.464,0,0,0,8.688,0H4V13.416H7.244a.333.333,0,0,0-.1-.15A6.914,6.914,0,0,1,5.416,9.075a4.659,4.659,0,0,0,1.908-1.6A4.927,4.927,0,0,0,12,2.594V1.406a.468.468,0,0,0-.469-.469Zm-.469,1.656A4,4,0,0,1,7.935,6.459,12.5,12.5,0,0,0,9.1,1.875h1.967Z" transform="translate(4)" fill="#fabe2c"/>
      <g id="Trophy_31_" transform="translate(5.971 2.13)">
        <g id="Group_1427" data-name="Group 1427">
          <path id="Path_501" data-name="Path 501" d="M5.762,4.9l-.748-.389L4.266,4.9A.469.469,0,0,1,3.588,4.4l.137-.833-.6-.592a.468.468,0,0,1,.259-.8l.833-.125L4.6,1.3a.488.488,0,0,1,.839,0l.377.754.833.125a.468.468,0,0,1,.259.8l-.6.592.137.833a.469.469,0,0,1-.678.493Z" transform="translate(-2.986 -1.065)" fill="#fabe2c"/>
        </g>
      </g>
      <path id="Path_502" data-name="Path 502" d="M4.748,4.9A.469.469,0,0,0,5.426,4.4l-.137-.833.6-.592a.468.468,0,0,0-.259-.8L4.8,2.057,4.419,1.3A.459.459,0,0,0,4,1.065V4.509Z" transform="translate(4 1.065)" fill="#ff9100"/>
      <g id="Group_1428" data-name="Group 1428" transform="translate(3.781 15.063)">
        <path id="Path_503" data-name="Path 503" d="M9.859,8.469h-7.5a.469.469,0,1,1,0-.937h7.5a.469.469,0,1,1,0,.938Z" transform="translate(-1.891 -7.531)" fill="#474f54"/>
      </g>
      <path id="Path_504" data-name="Path 504" d="M7.75,7.531H4v.938H7.75a.469.469,0,0,0,0-.937Z" transform="translate(4 7.531)" fill="#32393f"/>
    </g>
  </g>
</svg>
